<svg width="250" height="100" viewBox="0 0 250 100" fill="none" xmlns="http://www.w3.org/2000/svg">
<g clip-path="url(#clip0_917_2)">
<path d="M49 32H52V33.1252V41V44V50V53V67.6236V69H49V67.6233V53V50V44V41V33.1252V32Z" fill="#0F006C"/>
<path d="M40 50H49H52H61V53H52H49H40V50Z" fill="#0F006C"/>
<path d="M38 41H49H52H63V44H52H49H38V41Z" fill="#0F006C"/>
<path d="M67 38H81V41H67V38Z" fill="#0F006C"/>
<path d="M67 44H79V47H67V44Z" fill="#0F006C"/>
<path d="M66 50H77V53H66V50Z" fill="#0F006C"/>
<path d="M34 38H20V41H34V38Z" fill="#0F006C"/>
<path d="M34 44H22V47H34V44Z" fill="#0F006C"/>
<path d="M35 50H24V53H35V50Z" fill="#0F006C"/>
<path fill-rule="evenodd" clip-rule="evenodd" d="M42.7617 31.435C45.6292 30.6791 48.6764 30 50.5 30C52.3236 30 55.3708 30.6791 58.2383 31.435C61.1719 32.2037 64.1292 33.1134 65.8682 33.6644C66.5953 33.8972 67.2399 34.3241 67.7279 34.8962C68.216 35.4682 68.5277 36.1621 68.6273 36.8983C70.2025 48.3706 66.5474 56.8729 62.1127 62.4976C60.2322 64.9038 57.9898 67.0226 55.4606 68.7834C54.5861 69.3927 53.6595 69.9285 52.6909 70.385C51.9509 70.7232 51.1554 71 50.5 71C49.8446 71 49.0517 70.7232 48.3091 70.385C47.3405 69.9286 46.4139 69.3928 45.5394 68.7834C43.0102 67.0226 40.7679 64.9037 38.8873 62.4976C34.4526 56.8729 30.7975 48.3706 32.3727 36.8983C32.4723 36.1621 32.784 35.4682 33.2721 34.8962C33.7601 34.3241 34.4047 33.8972 35.1318 33.6644C37.6562 32.8618 40.2003 32.1185 42.7617 31.435ZM49 33.1252C47.5532 33.33 45.7459 33.7605 44.0166 34.225C41.8705 34.8085 39.739 35.443 37.6239 36.1281C37.0148 36.3269 36.4747 36.6913 36.0658 37.1797C35.6569 37.668 35.3957 38.2604 35.3122 38.8888C33.9925 48.6822 37.0549 55.9403 40.7704 60.7419C42.3461 62.7958 44.2248 64.6046 46.3438 66.1078C47.0765 66.628 47.8529 67.0854 48.6644 67.475C48.7752 67.5264 48.8874 67.5762 49 67.6233V53H40V50H49V44H38V41H49V33.1252ZM52 33.1252C53.4468 33.33 55.2541 33.7605 56.9834 34.225C59.4413 34.8812 61.9191 35.6578 63.3761 36.1281C63.9852 36.3269 64.5253 36.6913 64.9342 37.1797C65.3431 37.668 65.6043 38.2604 65.6878 38.8888C67.0075 48.6822 63.9451 55.9403 60.2296 60.7419C58.654 62.7959 56.7753 64.6047 54.6562 66.1078C53.9235 66.628 53.1471 67.0853 52.3356 67.475C52.2249 67.5266 52.1127 67.5764 52 67.6236V53H61V50H52V44H63V41H52V33.1252Z" fill="#0F006C"/>
<path d="M101.408 37.664V35.2H115.092V37.664H110.34V63.536H122.044L122.924 62.568V56.496H126.092V66H101.408V63.536H105.412V37.664H101.408ZM148.769 62.964C148.006 64.0493 146.921 64.9147 145.513 65.56C144.134 66.176 142.521 66.484 140.673 66.484C138.737 66.484 137.021 66.2053 135.525 65.648C134.058 65.0613 132.826 64.2547 131.829 63.228C130.831 62.172 130.069 60.9107 129.541 59.444C129.042 57.948 128.793 56.2907 128.793 54.472C128.793 50.5413 129.775 47.564 131.741 45.54C133.706 43.4867 136.463 42.46 140.013 42.46C141.186 42.46 142.33 42.6067 143.445 42.9C144.589 43.1933 145.601 43.6773 146.481 44.352C147.361 45.0267 148.065 45.9213 148.593 47.036C149.15 48.1507 149.428 49.5293 149.428 51.172C149.428 51.6707 149.399 52.1987 149.341 52.756C149.282 53.3133 149.194 53.9 149.077 54.516H133.765C133.765 55.8067 133.926 56.98 134.249 58.036C134.601 59.092 135.114 60.0013 135.789 60.764C136.493 61.5267 137.358 62.128 138.385 62.568C139.411 62.9787 140.629 63.184 142.037 63.184C143.181 63.184 144.237 62.9933 145.205 62.612C146.202 62.2307 146.994 61.7907 147.581 61.292L148.769 62.964ZM139.837 44.528C138.927 44.528 138.121 44.66 137.417 44.924C136.742 45.188 136.155 45.628 135.657 46.244C135.158 46.86 134.762 47.6813 134.469 48.708C134.175 49.7053 133.985 50.952 133.897 52.448H144.501C144.53 52.184 144.545 51.92 144.545 51.656C144.574 51.3627 144.589 51.0987 144.589 50.864C144.589 48.928 144.193 47.388 143.401 46.244C142.638 45.1 141.45 44.528 139.837 44.528ZM172.15 59.884C172.15 60.5587 172.165 61.248 172.194 61.952C172.224 62.6267 172.268 63.2427 172.326 63.8H175.23V66H168.322L167.882 61.82H167.662C167.516 62.4067 167.237 62.9787 166.826 63.536C166.445 64.0933 165.946 64.592 165.33 65.032C164.744 65.472 164.04 65.824 163.218 66.088C162.397 66.352 161.488 66.484 160.49 66.484C159.493 66.484 158.569 66.3373 157.718 66.044C156.897 65.7507 156.178 65.34 155.562 64.812C154.946 64.284 154.462 63.6533 154.11 62.92C153.788 62.1573 153.626 61.3067 153.626 60.368C153.626 58.9307 153.92 57.7427 154.506 56.804C155.122 55.8653 156.017 55.132 157.19 54.604C158.364 54.0467 159.83 53.6507 161.59 53.416C163.35 53.1813 165.404 53.0493 167.75 53.02C167.809 52.5507 167.838 52.1107 167.838 51.7C167.838 51.26 167.838 50.8347 167.838 50.424C167.838 48.6053 167.53 47.2267 166.914 46.288C166.298 45.32 165.198 44.836 163.614 44.836C163.028 44.836 162.397 44.8653 161.722 44.924C161.048 44.9827 160.432 45.1587 159.874 45.452V49.5H155.914V44.616C156.97 44.0587 158.217 43.56 159.654 43.12C161.092 42.68 162.778 42.46 164.714 42.46C166.386 42.46 167.721 42.68 168.718 43.12C169.745 43.5307 170.522 44.088 171.05 44.792C171.608 45.4667 171.96 46.244 172.106 47.124C172.282 47.9747 172.37 48.8253 172.37 49.676C172.37 51.524 172.326 53.2987 172.238 55C172.18 56.672 172.15 58.3 172.15 59.884ZM162.514 63.536C163.218 63.536 163.849 63.4333 164.406 63.228C164.964 62.9933 165.448 62.7147 165.858 62.392C166.298 62.04 166.665 61.6587 166.958 61.248C167.281 60.8373 167.545 60.4413 167.75 60.06V54.824C165.844 54.824 164.289 54.956 163.086 55.22C161.913 55.4547 160.989 55.7773 160.314 56.188C159.64 56.5987 159.17 57.0973 158.906 57.684C158.672 58.2413 158.554 58.8427 158.554 59.488C158.554 60.808 158.906 61.82 159.61 62.524C160.314 63.1987 161.282 63.536 162.514 63.536ZM189.281 46.86C188.606 47.212 188.049 47.6227 187.609 48.092C187.169 48.5613 186.7 49.236 186.201 50.116V63.8H190.073V66H178.325V63.8H181.581V45.1H178.325V42.9H186.201V47.344H186.377C186.876 46.376 187.462 45.54 188.137 44.836C188.812 44.1027 189.574 43.4573 190.425 42.9H194.649V46.86H189.281ZM224.464 66H213.684V63.8H216.588V52.756C216.588 50.4387 216.236 48.6347 215.532 47.344C214.828 46.0533 213.538 45.408 211.66 45.408C210.839 45.408 210.076 45.54 209.372 45.804C208.698 46.068 208.082 46.42 207.524 46.86C206.996 47.3 206.527 47.8133 206.116 48.4C205.735 48.9867 205.442 49.6027 205.236 50.248V63.8H208.14V66H197.36V63.8H200.616V45.1H197.36V42.9H205.236V47.476H205.28C205.955 46.068 206.938 44.88 208.228 43.912C209.548 42.944 211.132 42.46 212.98 42.46C214.3 42.46 215.474 42.6067 216.5 42.9C217.527 43.164 218.378 43.6627 219.052 44.396C219.756 45.1293 220.284 46.112 220.636 47.344C221.018 48.576 221.208 50.1453 221.208 52.052V63.8H224.464V66Z" fill="#0F006C"/>
</g>
<defs>
<clipPath id="clip0_917_2">
<rect width="250" height="100" fill="white"/>
</clipPath>
</defs>
</svg>
